<?xml version="1.0" encoding="UTF-8"?>
<!DOCTYPE svg PUBLIC "-//W3C//DTD SVG 1.1//EN" "http://www.w3.org/Graphics/SVG/1.1/DTD/svg11.dtd">
<svg xmlns="http://www.w3.org/2000/svg" version="1.1" width="422px" height="591px" style="shape-rendering:geometricPrecision; text-rendering:geometricPrecision; image-rendering:optimizeQuality; fill-rule:evenodd; clip-rule:evenodd" xmlns:xlink="http://www.w3.org/1999/xlink">
<g><path style="opacity:0.082" fill="#b2b3b3" d="M 209.5,86.5 C 215.404,86.3213 221.071,86.9879 226.5,88.5C 220.611,88.5503 214.944,87.8836 209.5,86.5 Z"/></g>
<g><path style="opacity:0.224" fill="#c1c2c2" d="M 184.5,86.5 C 180.057,87.8015 175.391,88.4681 170.5,88.5C 174.919,87.0285 179.586,86.3618 184.5,86.5 Z"/></g>
<g><path style="opacity:1" fill="#030303" d="M 209.5,86.5 C 214.944,87.8836 220.611,88.5503 226.5,88.5C 228.099,88.2322 229.432,88.5655 230.5,89.5C 234.239,91.1016 238.239,92.1016 242.5,92.5C 244.214,93.7384 246.214,94.405 248.5,94.5C 250.786,94.595 252.786,95.2616 254.5,96.5C 255.78,97.9313 257.447,98.5979 259.5,98.5C 261.153,98.6596 262.486,99.3263 263.5,100.5C 263.611,101.117 263.944,101.617 264.5,102C 301.165,102.5 337.832,102.667 374.5,102.5C 375.653,121.093 375.819,139.76 375,158.5C 374.617,159.056 374.117,159.389 373.5,159.5C 356.5,159.5 339.5,159.5 322.5,159.5C 322.263,160.791 322.596,161.791 323.5,162.5C 325.4,165.518 326.733,168.851 327.5,172.5C 327.41,175.152 328.076,177.485 329.5,179.5C 329.565,182.428 330.232,185.095 331.5,187.5C 331.5,187.833 331.5,188.167 331.5,188.5C 332.347,202.816 332.68,217.149 332.5,231.5C 332.214,239.583 330.547,247.249 327.5,254.5C 326.262,256.214 325.595,258.214 325.5,260.5C 323.15,268.864 319.483,276.531 314.5,283.5C 313.094,283.973 312.427,284.973 312.5,286.5C 303.812,299.855 292.812,310.855 279.5,319.5C 278.29,319.932 277.29,320.599 276.5,321.5C 273.322,324.258 269.655,326.258 265.5,327.5C 263.847,327.66 262.514,328.326 261.5,329.5C 254.749,333.531 247.415,336.197 239.5,337.5C 236.848,337.41 234.515,338.076 232.5,339.5C 232.167,339.5 231.833,339.5 231.5,339.5C 224.308,340.105 217.308,341.105 210.5,342.5C 195.582,344.136 180.915,343.136 166.5,339.5C 164.095,338.232 161.428,337.565 158.5,337.5C 153.767,335.256 148.767,333.589 143.5,332.5C 138.291,331.462 133.291,329.129 128.5,325.5C 128.027,324.094 127.027,323.427 125.5,323.5C 124.508,323.672 123.842,323.338 123.5,322.5C 121.833,321.167 120.167,321.167 118.5,322.5C 118.5,323.167 118.5,323.833 118.5,324.5C 116.926,325.984 115.593,327.651 114.5,329.5C 112.989,331.476 112.156,333.809 112,336.5C 111.195,339.696 111.362,342.696 112.5,345.5C 112.5,345.833 112.5,346.167 112.5,346.5C 112.054,349.01 112.72,351.01 114.5,352.5C 115.674,353.514 116.34,354.847 116.5,356.5C 116.738,358.404 117.738,359.738 119.5,360.5C 120.872,361.512 122.205,362.512 123.5,363.5C 124.035,365.446 125.368,366.446 127.5,366.5C 128.492,366.328 129.158,366.662 129.5,367.5C 130.78,368.931 132.447,369.598 134.5,369.5C 135.791,369.263 136.791,369.596 137.5,370.5C 140.171,372.118 143.171,372.785 146.5,372.5C 194.008,373.217 241.675,373.883 289.5,374.5C 291.415,374.216 293.081,374.549 294.5,375.5C 296.905,376.768 299.572,377.435 302.5,377.5C 307.669,377.999 312.336,379.666 316.5,382.5C 318.181,384.008 320.181,385.008 322.5,385.5C 326.976,386.657 330.642,388.99 333.5,392.5C 333.973,393.906 334.973,394.573 336.5,394.5C 339.5,396.833 342.167,399.5 344.5,402.5C 345.08,404.749 346.413,406.415 348.5,407.5C 348.738,409.404 349.738,410.738 351.5,411.5C 351.427,413.027 352.094,414.027 353.5,414.5C 353.427,416.027 354.094,417.027 355.5,417.5C 357.008,419.181 358.008,421.181 358.5,423.5C 358.12,425.698 358.787,427.365 360.5,428.5C 361.11,429.391 361.443,430.391 361.5,431.5C 361.259,433.898 361.926,435.898 363.5,437.5C 363.5,438.167 363.5,438.833 363.5,439.5C 363.565,442.428 364.232,445.095 365.5,447.5C 365.5,448.5 365.5,449.5 365.5,450.5C 365.858,462.24 365.192,473.907 363.5,485.5C 360.904,499.028 354.904,510.695 345.5,520.5C 344.094,520.973 343.427,521.973 343.5,523.5C 343.167,524.5 342.5,525.167 341.5,525.5C 340.5,525.833 339.833,526.5 339.5,527.5C 337.77,528.026 336.436,529.026 335.5,530.5C 333.082,533.547 330.082,535.88 326.5,537.5C 324.973,537.427 323.973,538.094 323.5,539.5C 322.508,539.328 321.842,539.662 321.5,540.5C 320.486,541.674 319.153,542.34 317.5,542.5C 315.847,542.66 314.514,543.326 313.5,544.5C 311.574,546.293 309.241,547.293 306.5,547.5C 304.447,547.402 302.78,548.069 301.5,549.5C 300.292,550.234 298.959,550.567 297.5,550.5C 294.572,550.565 291.905,551.232 289.5,552.5C 283.599,553.414 277.765,553.414 272,552.5C 271.5,532.503 271.333,512.503 271.5,492.5C 274.391,491.597 277.391,491.264 280.5,491.5C 284.081,491.862 287.081,490.862 289.5,488.5C 289.842,487.662 290.508,487.328 291.5,487.5C 292.492,487.672 293.158,487.338 293.5,486.5C 296.404,485.386 298.404,483.386 299.5,480.5C 300.906,480.027 301.573,479.027 301.5,477.5C 301.796,475.597 302.463,473.93 303.5,472.5C 305.971,466.703 306.137,460.703 304,454.5C 303.617,453.944 303.117,453.611 302.5,453.5C 300.139,449.139 296.806,445.806 292.5,443.5C 287.843,440.075 282.51,438.741 276.5,439.5C 231.165,439.667 185.832,439.5 140.5,439C 135.953,438.571 131.619,437.738 127.5,436.5C 125.485,435.076 123.152,434.41 120.5,434.5C 118.708,434.634 117.042,434.301 115.5,433.5C 114.365,431.787 112.698,431.12 110.5,431.5C 105.749,430.29 101.416,428.29 97.5,425.5C 97.0269,424.094 96.0269,423.427 94.5,423.5C 93.5084,423.672 92.8417,423.338 92.5,422.5C 91.7377,420.738 90.4044,419.738 88.5,419.5C 88.0269,418.094 87.0269,417.427 85.5,417.5C 84.5,417.167 83.8333,416.5 83.5,415.5C 82.7377,413.738 81.4044,412.738 79.5,412.5C 79.1667,411.5 78.5,410.833 77.5,410.5C 76.9202,408.251 75.5869,406.585 73.5,405.5C 71.7376,404.738 70.7376,403.404 70.5,401.5C 70.4456,399.368 69.4456,398.035 67.5,397.5C 66.2632,396.035 65.2632,394.368 64.5,392.5C 64.6716,391.508 64.3382,390.842 63.5,390.5C 60.7042,385.895 58.7042,380.895 57.5,375.5C 57.7406,373.102 57.0739,371.102 55.5,369.5C 52.0505,355.438 51.7172,341.438 54.5,327.5C 56.2766,324.495 57.2766,321.162 57.5,317.5C 58.6589,313.849 60.3256,310.515 62.5,307.5C 63.9063,307.027 64.573,306.027 64.5,304.5C 66.2181,302.777 67.5514,300.777 68.5,298.5C 68.8333,297.5 69.5,296.833 70.5,296.5C 72.2624,295.738 73.2624,294.404 73.5,292.5C 76.3451,289.488 79.0118,286.321 81.5,283C 76.2613,274.358 72.2613,265.191 69.5,255.5C 69.5905,252.848 68.9238,250.515 67.5,248.5C 67.5,248.167 67.5,247.833 67.5,247.5C 66.9901,242.609 65.9901,237.942 64.5,233.5C 64.5,233.167 64.5,232.833 64.5,232.5C 63.8516,222.847 63.5183,213.18 63.5,203.5C 63.4388,196.546 64.4388,189.879 66.5,183.5C 68.4835,180.201 69.4835,176.534 69.5,172.5C 69.2627,171.209 69.596,170.209 70.5,169.5C 72.2132,168.365 72.8799,166.698 72.5,164.5C 74.2132,163.365 74.8799,161.698 74.5,159.5C 74.9925,157.181 75.9925,155.181 77.5,153.5C 78.9063,153.027 79.573,152.027 79.5,150.5C 77.9689,149.075 78.3023,148.409 80.5,148.5C 81.9063,148.027 82.573,147.027 82.5,145.5C 83.9063,145.027 84.573,144.027 84.5,142.5C 85.9063,142.027 86.573,141.027 86.5,139.5C 88.2624,138.738 89.2624,137.404 89.5,135.5C 90.9744,134.564 91.9744,133.23 92.5,131.5C 93.5,131.167 94.1667,130.5 94.5,129.5C 94.8333,128.5 95.5,127.833 96.5,127.5C 98.5,126.167 100.167,124.5 101.5,122.5C 102.167,121.167 103.167,120.167 104.5,119.5C 106.23,118.974 107.564,117.974 108.5,116.5C 108.833,115.5 109.5,114.833 110.5,114.5C 111.71,114.068 112.71,113.401 113.5,112.5C 115.027,112.573 116.027,111.906 116.5,110.5C 116.5,109.833 116.833,109.5 117.5,109.5C 119.368,108.737 121.035,107.737 122.5,106.5C 123.71,106.068 124.71,105.401 125.5,104.5C 125.842,103.662 126.508,103.328 127.5,103.5C 128.492,103.672 129.158,103.338 129.5,102.5C 129.842,101.662 130.508,101.328 131.5,101.5C 132.492,101.672 133.158,101.338 133.5,100.5C 137.593,99.6176 141.26,97.951 144.5,95.5C 145.708,94.7659 147.041,94.4326 148.5,94.5C 153.054,93.6159 157.387,92.2825 161.5,90.5C 164.495,90.7062 167.162,90.0395 169.5,88.5C 169.833,88.5 170.167,88.5 170.5,88.5C 175.391,88.4681 180.057,87.8015 184.5,86.5C 192.883,85.2617 201.217,85.2617 209.5,86.5 Z M 207.5,148.5 C 210.096,149.265 212.763,149.599 215.5,149.5C 217.214,150.738 219.214,151.405 221.5,151.5C 221.833,151.5 222.167,151.5 222.5,151.5C 223.78,152.931 225.447,153.598 227.5,153.5C 229.849,155.341 232.515,156.674 235.5,157.5C 235.973,158.906 236.973,159.573 238.5,159.5C 238.877,161.824 239.877,162.491 241.5,161.5C 242.585,163.587 244.251,164.92 246.5,165.5C 247.757,168.427 249.757,170.761 252.5,172.5C 252.5,173.167 252.833,173.5 253.5,173.5C 253.427,175.027 254.094,176.027 255.5,176.5C 256.026,178.23 257.026,179.564 258.5,180.5C 260.539,185.235 262.539,189.901 264.5,194.5C 266.196,204.077 266.863,213.744 266.5,223.5C 265.659,225.379 265.325,227.379 265.5,229.5C 264.388,231.599 263.721,233.933 263.5,236.5C 261.93,239.314 260.597,242.314 259.5,245.5C 257.75,246.659 256.75,248.326 256.5,250.5C 254.302,250.409 253.969,251.075 255.5,252.5C 254.833,252.5 254.5,252.833 254.5,253.5C 252.952,253.821 252.285,254.821 252.5,256.5C 251.5,256.833 250.833,257.5 250.5,258.5C 247.833,260.5 245.5,262.833 243.5,265.5C 241.027,265.088 239.694,266.088 239.5,268.5C 237.632,267.326 236.632,267.993 236.5,270.5C 234.973,270.427 233.973,271.094 233.5,272.5C 232.508,272.328 231.842,272.662 231.5,273.5C 229.597,273.796 227.93,274.463 226.5,275.5C 225.153,276.171 223.986,276.171 223,275.5C 222.283,276.044 221.783,276.711 221.5,277.5C 218.733,277.858 216.067,278.525 213.5,279.5C 203.833,280.833 194.167,280.833 184.5,279.5C 180.905,278.303 177.239,277.303 173.5,276.5C 172.22,275.069 170.553,274.402 168.5,274.5C 166.337,272.917 164.004,271.584 161.5,270.5C 160.71,269.599 159.71,268.932 158.5,268.5C 157.205,267.512 155.872,266.512 154.5,265.5C 153.738,263.738 152.404,262.738 150.5,262.5C 150.167,261.5 149.5,260.833 148.5,260.5C 148.5,259.167 147.833,258.5 146.5,258.5C 145.92,256.251 144.587,254.585 142.5,253.5C 142.573,251.973 141.906,250.973 140.5,250.5C 140.573,248.973 139.906,247.973 138.5,247.5C 138.008,245.181 137.008,243.181 135.5,241.5C 135.065,238.843 134.065,236.509 132.5,234.5C 131.731,228.996 130.731,223.662 129.5,218.5C 129.697,211.12 130.364,203.787 131.5,196.5C 132.738,194.786 133.405,192.786 133.5,190.5C 134.338,190.158 134.672,189.492 134.5,188.5C 135.674,187.486 136.34,186.153 136.5,184.5C 136.5,184.167 136.5,183.833 136.5,183.5C 138.25,182.341 139.25,180.674 139.5,178.5C 141.156,176.54 142.823,174.54 144.5,172.5C 145.906,172.027 146.573,171.027 146.5,169.5C 147.833,169.5 148.5,168.833 148.5,167.5C 150.404,167.262 151.738,166.262 152.5,164.5C 158.235,160.304 164.235,156.637 170.5,153.5C 172.553,153.598 174.22,152.931 175.5,151.5C 178.152,151.59 180.485,150.924 182.5,149.5C 182.833,149.5 183.167,149.5 183.5,149.5C 191.471,148.677 199.471,148.344 207.5,148.5 Z"/></g>
<g><path style="opacity:0.682" fill="#9b9d9c" d="M 169.5,88.5 C 167.162,90.0395 164.495,90.7062 161.5,90.5C 163.448,89.8688 165.281,88.8688 167,87.5C 167.671,88.2524 168.504,88.5858 169.5,88.5 Z"/></g>
<g><path style="opacity:0.122" fill="#aaaaaa" d="M 230.5,89.5 C 234.837,89.5841 238.837,90.5841 242.5,92.5C 238.239,92.1016 234.239,91.1016 230.5,89.5 Z"/></g>
<g><path style="opacity:0.62" fill="#919191" d="M 161.5,90.5 C 157.387,92.2825 153.054,93.6159 148.5,94.5C 149.688,93.6364 150.855,92.6364 152,91.5C 154.498,92.1212 156.832,91.4545 159,89.5C 159.671,90.2524 160.504,90.5858 161.5,90.5 Z"/></g>
<g><path style="opacity:0.016" fill="#bbbbbb" d="M 242.5,92.5 C 244.898,92.2594 246.898,92.9261 248.5,94.5C 246.214,94.405 244.214,93.7384 242.5,92.5 Z"/></g>
<g><path style="opacity:0.004" fill="#c9cbca" d="M 144.5,95.5 C 141.26,97.951 137.593,99.6176 133.5,100.5C 135.674,98.9186 138.007,97.4186 140.5,96C 141.793,95.51 143.127,95.3433 144.5,95.5 Z"/></g>
<g><path style="opacity:0.239" fill="#b9bbba" d="M 254.5,96.5 C 256.553,96.4021 258.22,97.0687 259.5,98.5C 257.447,98.5979 255.78,97.9313 254.5,96.5 Z"/></g>
<g><path style="opacity:0.11" fill="#ced0cf" d="M 133.5,100.5 C 133.158,101.338 132.492,101.672 131.5,101.5C 131.409,99.3023 132.075,98.9689 133.5,100.5 Z"/></g>
<g><path style="opacity:0.874" fill="#585959" d="M 263.5,100.5 C 299.835,100.333 336.168,100.5 372.5,101C 374.343,101.159 375.009,101.659 374.5,102.5C 337.832,102.667 301.165,102.5 264.5,102C 263.944,101.617 263.611,101.117 263.5,100.5 Z"/></g>
<g><path style="opacity:0.086" fill="#d5d5d5" d="M 129.5,102.5 C 129.158,103.338 128.492,103.672 127.5,103.5C 127.409,101.302 128.075,100.969 129.5,102.5 Z"/></g>
<g><path style="opacity:0.01" fill="#e7e8e7" d="M 125.5,104.5 C 124.71,105.401 123.71,106.068 122.5,106.5C 122.821,104.952 123.821,104.285 125.5,104.5 Z"/></g>
<g><path style="opacity:0.059" fill="#dddede" d="M 122.5,106.5 C 121.035,107.737 119.368,108.737 117.5,109.5C 118.3,107.259 119.966,106.259 122.5,106.5 Z"/></g>
<g><path style="opacity:0.725" fill="#909291" d="M 116.5,110.5 C 116.027,111.906 115.027,112.573 113.5,112.5C 113.877,110.176 114.877,109.509 116.5,110.5 Z"/></g>
<g><path style="opacity:0.02" fill="#e3e3e3" d="M 113.5,112.5 C 112.71,113.401 111.71,114.068 110.5,114.5C 110.821,112.952 111.821,112.285 113.5,112.5 Z"/></g>
<g><path style="opacity:0.082" fill="#cccccc" d="M 108.5,116.5 C 107.564,117.974 106.23,118.974 104.5,119.5C 105.035,117.554 106.368,116.554 108.5,116.5 Z"/></g>
<g><path style="opacity:0.38" fill="#bbbcbc" d="M 101.5,122.5 C 100.167,124.5 98.5,126.167 96.5,127.5C 97.1667,124.833 98.8333,123.167 101.5,122.5 Z"/></g>
<g><path style="opacity:0.133" fill="#dcdcdc" d="M 94.5,129.5 C 94.1667,130.5 93.5,131.167 92.5,131.5C 92.5,130.167 93.1667,129.5 94.5,129.5 Z"/></g>
<g><path style="opacity:0.333" fill="#c4c5c4" d="M 92.5,131.5 C 91.9744,133.23 90.9744,134.564 89.5,135.5C 89.5544,133.368 90.5544,132.035 92.5,131.5 Z"/></g>
<g><path style="opacity:0.565" fill="#8a8c8b" d="M 89.5,135.5 C 89.2624,137.404 88.2624,138.738 86.5,139.5C 86.7376,137.596 87.7376,136.262 89.5,135.5 Z"/></g>
<g><path style="opacity:0.51" fill="#8b8d8c" d="M 86.5,139.5 C 86.573,141.027 85.9063,142.027 84.5,142.5C 84.427,140.973 85.0937,139.973 86.5,139.5 Z"/></g>
<g><path style="opacity:0.776" fill="#878887" d="M 84.5,142.5 C 84.573,144.027 83.9063,145.027 82.5,145.5C 81.5092,143.877 82.1759,142.877 84.5,142.5 Z"/></g>
<g><path style="opacity:0.373" fill="#9c9c9c" d="M 82.5,145.5 C 82.573,147.027 81.9063,148.027 80.5,148.5C 80.427,146.973 81.0937,145.973 82.5,145.5 Z"/></g>
<g><path style="opacity:0.169" fill="#b2b4b3" d="M 207.5,148.5 C 199.471,148.344 191.471,148.677 183.5,149.5C 187.896,147.967 192.563,147.3 197.5,147.5C 201.018,147.502 204.351,147.835 207.5,148.5 Z"/></g>
<g><path style="opacity:0.706" fill="#919392" d="M 215.5,149.5 C 217.898,149.259 219.898,149.926 221.5,151.5C 219.214,151.405 217.214,150.738 215.5,149.5 Z"/></g>
<g><path style="opacity:0.02" fill="#c5c5c5" d="M 182.5,149.5 C 180.485,150.924 178.152,151.59 175.5,151.5C 177.515,150.076 179.848,149.41 182.5,149.5 Z"/></g>
<g><path style="opacity:0.929" fill="#6b6c6c" d="M 222.5,151.5 C 224.698,151.12 226.365,151.787 227.5,153.5C 225.447,153.598 223.78,152.931 222.5,151.5 Z"/></g>
<g><path style="opacity:0.263" fill="#adafae" d="M 79.5,150.5 C 79.573,152.027 78.9063,153.027 77.5,153.5C 77.427,151.973 78.0937,150.973 79.5,150.5 Z"/></g>
<g><path style="opacity:0.102" fill="#c4c6c5" d="M 175.5,151.5 C 174.22,152.931 172.553,153.598 170.5,153.5C 171.78,152.069 173.447,151.402 175.5,151.5 Z"/></g>
<g><path style="opacity:0.376" fill="#9b9d9c" d="M 235.5,157.5 C 237.027,157.427 238.027,158.094 238.5,159.5C 236.973,159.573 235.973,158.906 235.5,157.5 Z"/></g>
<g><path style="opacity:0.526" fill="#757776" d="M 373.5,159.5 C 356.642,159.838 339.975,160.838 323.5,162.5C 322.596,161.791 322.263,160.791 322.5,159.5C 339.5,159.5 356.5,159.5 373.5,159.5 Z"/></g>
<g><path style="opacity:0.004" fill="#b3b5b4" d="M 238.5,159.5 C 240.027,159.427 241.027,160.094 241.5,161.5C 239.877,162.491 238.877,161.824 238.5,159.5 Z"/></g>
<g><path style="opacity:0.831" fill="#818281" d="M 241.5,161.5 C 243.749,162.08 245.415,163.413 246.5,165.5C 244.251,164.92 242.585,163.587 241.5,161.5 Z"/></g>
<g><path style="opacity:0.016" fill="#eeefee" d="M 325.5,161.5 C 326.833,162.167 326.833,162.167 325.5,161.5 Z"/></g>
<g><path style="opacity:0.867" fill="#737373" d="M 74.5,159.5 C 74.8799,161.698 74.2132,163.365 72.5,164.5C 72.7959,162.597 73.4625,160.93 74.5,159.5 Z"/></g>
<g><path style="opacity:0.004" fill="#d1d3d2" d="M 152.5,164.5 C 151.738,166.262 150.404,167.262 148.5,167.5C 149.262,165.738 150.596,164.738 152.5,164.5 Z"/></g>
<g><path style="opacity:0.016" fill="#bcbdbc" d="M 246.5,165.5 C 249.243,167.239 251.243,169.573 252.5,172.5C 249.757,170.761 247.757,168.427 246.5,165.5 Z"/></g>
<g><path style="opacity:0.867" fill="#7e7e7e" d="M 72.5,164.5 C 72.8799,166.698 72.2132,168.365 70.5,169.5C 70.4021,167.447 71.0687,165.78 72.5,164.5 Z"/></g>
<g><path style="opacity:0.004" fill="#c6c7c7" d="M 148.5,167.5 C 148.5,168.833 147.833,169.5 146.5,169.5C 146.833,168.5 147.5,167.833 148.5,167.5 Z"/></g>
<g><path style="opacity:0.004" fill="#c7c7c7" d="M 146.5,169.5 C 146.573,171.027 145.906,172.027 144.5,172.5C 144.427,170.973 145.094,169.973 146.5,169.5 Z"/></g>
<g><path style="opacity:0.012" fill="#d1d3d2" d="M 253.5,173.5 C 254.906,173.973 255.573,174.973 255.5,176.5C 254.094,176.027 253.427,175.027 253.5,173.5 Z"/></g>
<g><path style="opacity:0.78" fill="#808080" d="M 327.5,172.5 C 328.924,174.515 329.59,176.848 329.5,179.5C 328.076,177.485 327.41,175.152 327.5,172.5 Z"/></g>
<g><path style="opacity:0.867" fill="#818181" d="M 69.5,172.5 C 69.4835,176.534 68.4835,180.201 66.5,183.5C 66.7424,179.521 67.7424,175.854 69.5,172.5 Z"/></g>
<g><path style="opacity:0.859" fill="#808281" d="M 255.5,176.5 C 257.446,177.035 258.446,178.368 258.5,180.5C 257.026,179.564 256.026,178.23 255.5,176.5 Z"/></g>
<g><path style="opacity:0.992" fill="#686969" d="M 139.5,178.5 C 139.25,180.674 138.25,182.341 136.5,183.5C 136.241,181.011 137.241,179.344 139.5,178.5 Z"/></g>
<g><path style="opacity:0.651" fill="#989998" d="M 329.5,179.5 C 331.04,181.838 331.706,184.505 331.5,187.5C 330.232,185.095 329.565,182.428 329.5,179.5 Z"/></g>
<g><path style="opacity:0.278" fill="#bababa" d="M 136.5,184.5 C 136.34,186.153 135.674,187.486 134.5,188.5C 134.229,186.62 134.896,185.287 136.5,184.5 Z"/></g>
<g><path style="opacity:0.573" fill="#898989" d="M 133.5,190.5 C 133.405,192.786 132.738,194.786 131.5,196.5C 131.259,194.102 131.926,192.102 133.5,190.5 Z"/></g>
<g><path style="opacity:0.329" fill="#8c8d8d" d="M 131.5,196.5 C 130.364,203.787 129.697,211.12 129.5,218.5C 128.184,211.028 128.851,203.695 131.5,196.5 Z"/></g>
<g><path style="opacity:0.008" fill="#c7c8c8" d="M 264.5,194.5 C 265.776,196.562 266.61,198.896 267,201.5C 267.822,209.012 267.655,216.345 266.5,223.5C 266.863,213.744 266.196,204.077 264.5,194.5 Z"/></g>
<g><path style="opacity:0.09" fill="#ced0cf" d="M 63.5,203.5 C 63.5183,213.18 63.8516,222.847 64.5,232.5C 62.4686,222.877 62.1353,213.211 63.5,203.5 Z"/></g>
<g><path style="opacity:0.682" fill="#868787" d="M 331.5,188.5 C 334.404,203.095 334.737,217.429 332.5,231.5C 332.68,217.149 332.347,202.816 331.5,188.5 Z"/></g>
<g><path style="opacity:0.792" fill="#878787" d="M 265.5,229.5 C 265.829,232.228 265.163,234.562 263.5,236.5C 263.721,233.933 264.388,231.599 265.5,229.5 Z"/></g>
<g><path style="opacity:0.941" fill="#727272" d="M 132.5,234.5 C 134.065,236.509 135.065,238.843 135.5,241.5C 133.166,239.824 132.166,237.491 132.5,234.5 Z"/></g>
<g><path style="opacity:0.271" fill="#9b9d9c" d="M 64.5,233.5 C 65.9901,237.942 66.9901,242.609 67.5,247.5C 65.4983,243.167 64.4983,238.5 64.5,233.5 Z"/></g>
<g><path style="opacity:0.082" fill="#cfd1d0" d="M 259.5,245.5 C 259.25,247.674 258.25,249.341 256.5,250.5C 256.75,248.326 257.75,246.659 259.5,245.5 Z"/></g>
<g><path style="opacity:0.31" fill="#afb0b0" d="M 138.5,247.5 C 139.906,247.973 140.573,248.973 140.5,250.5C 139.094,250.027 138.427,249.027 138.5,247.5 Z"/></g>
<g><path style="opacity:0.067" fill="#d3d3d3" d="M 256.5,250.5 C 256.672,251.492 256.338,252.158 255.5,252.5C 253.969,251.075 254.302,250.409 256.5,250.5 Z"/></g>
<g><path style="opacity:0.024" fill="#b9b9b9" d="M 67.5,248.5 C 68.9238,250.515 69.5905,252.848 69.5,255.5C 68.0762,253.485 67.4095,251.152 67.5,248.5 Z"/></g>
<g><path style="opacity:0.333" fill="#aeaeae" d="M 140.5,250.5 C 141.906,250.973 142.573,251.973 142.5,253.5C 141.094,253.027 140.427,252.027 140.5,250.5 Z"/></g>
<g><path style="opacity:0.773" fill="#929292" d="M 142.5,253.5 C 144.587,254.585 145.92,256.251 146.5,258.5C 144.413,257.415 143.08,255.749 142.5,253.5 Z"/></g>
<g><path style="opacity:0.02" fill="#dedede" d="M 254.5,253.5 C 254.068,254.71 253.401,255.71 252.5,256.5C 252.285,254.821 252.952,253.821 254.5,253.5 Z"/></g>
<g><path style="opacity:0.008" fill="#bdbdbd" d="M 327.5,254.5 C 327.741,256.898 327.074,258.898 325.5,260.5C 325.595,258.214 326.262,256.214 327.5,254.5 Z"/></g>
<g><path style="opacity:0.008" fill="#cbcccc" d="M 146.5,258.5 C 147.833,258.5 148.5,259.167 148.5,260.5C 147.5,260.167 146.833,259.5 146.5,258.5 Z"/></g>
<g><path style="opacity:0.012" fill="#c2c2c2" d="M 150.5,262.5 C 152.404,262.738 153.738,263.738 154.5,265.5C 152.596,265.262 151.262,264.262 150.5,262.5 Z"/></g>
<g><path style="opacity:0.769" fill="#727272" d="M 250.5,258.5 C 249.167,261.833 246.833,264.167 243.5,265.5C 245.5,262.833 247.833,260.5 250.5,258.5 Z"/></g>
<g><path style="opacity:0.022" fill="#d8d8d8" d="M 243.5,265.5 C 242.564,266.974 241.23,267.974 239.5,268.5C 239.694,266.088 241.027,265.088 243.5,265.5 Z"/></g>
<g><path style="opacity:0.02" fill="#e2e3e3" d="M 239.5,268.5 C 238.71,269.401 237.71,270.068 236.5,270.5C 236.632,267.993 237.632,267.326 239.5,268.5 Z"/></g>
<g><path style="opacity:0.89" fill="#757675" d="M 158.5,268.5 C 159.71,268.932 160.71,269.599 161.5,270.5C 159.821,270.715 158.821,270.048 158.5,268.5 Z"/></g>
<g><path style="opacity:0.647" fill="#8b8d8c" d="M 236.5,270.5 C 236.027,271.906 235.027,272.573 233.5,272.5C 233.973,271.094 234.973,270.427 236.5,270.5 Z"/></g>
<g><path style="opacity:0.859" fill="#757575" d="M 231.5,273.5 C 230.365,275.213 228.698,275.88 226.5,275.5C 227.93,274.463 229.597,273.796 231.5,273.5 Z"/></g>
<g><path style="opacity:0.298" fill="#aeaeae" d="M 168.5,274.5 C 170.553,274.402 172.22,275.069 173.5,276.5C 171.447,276.598 169.78,275.931 168.5,274.5 Z"/></g>
<g><path style="opacity:0.737" fill="#989898" d="M 226.5,275.5 C 225.365,277.213 223.698,277.88 221.5,277.5C 221.783,276.711 222.283,276.044 223,275.5C 223.986,276.171 225.153,276.171 226.5,275.5 Z"/></g>
<g><path style="opacity:0.122" fill="#b4b6b5" d="M 184.5,279.5 C 194.167,280.833 203.833,280.833 213.5,279.5C 208.767,281.046 203.767,281.713 198.5,281.5C 194.833,281.333 191.167,281.167 187.5,281C 186.263,280.768 185.263,280.268 184.5,279.5 Z"/></g>
<g><path style="opacity:0.004" fill="#c7c8c7" d="M 314.5,283.5 C 314.573,285.027 313.906,286.027 312.5,286.5C 312.427,284.973 313.094,283.973 314.5,283.5 Z"/></g>
<g><path style="opacity:0.757" fill="#7c7e7d" d="M 73.5,292.5 C 73.2624,294.404 72.2624,295.738 70.5,296.5C 70.7376,294.596 71.7376,293.262 73.5,292.5 Z"/></g>
<g><path style="opacity:0.067" fill="#c0c2c1" d="M 68.5,298.5 C 67.5514,300.777 66.2181,302.777 64.5,304.5C 64.6225,301.708 65.9558,299.708 68.5,298.5 Z"/></g>
<g><path style="opacity:0.384" fill="#9a9b9a" d="M 64.5,304.5 C 64.573,306.027 63.9063,307.027 62.5,307.5C 62.427,305.973 63.0937,304.973 64.5,304.5 Z"/></g>
<g><path style="opacity:0.765" fill="#878888" d="M 57.5,317.5 C 57.2766,321.162 56.2766,324.495 54.5,327.5C 54.7234,323.838 55.7234,320.505 57.5,317.5 Z"/></g>
<g><path style="opacity:0.004" fill="#e5e7e6" d="M 279.5,319.5 C 279.179,321.048 278.179,321.715 276.5,321.5C 277.29,320.599 278.29,319.932 279.5,319.5 Z"/></g>
<g><path style="opacity:0.051" fill="#d9d9d9" d="M 118.5,322.5 C 120.167,321.167 121.833,321.167 123.5,322.5C 122.027,323.071 120.36,323.071 118.5,322.5 Z"/></g>
<g><path style="opacity:0.004" fill="#eff0ef" d="M 118.5,324.5 C 119.833,325.167 119.833,325.167 118.5,324.5 Z"/></g>
<g><path style="opacity:0.373" fill="#989898" d="M 125.5,323.5 C 127.027,323.427 128.027,324.094 128.5,325.5C 126.973,325.573 125.973,324.906 125.5,323.5 Z"/></g>
<g><path style="opacity:0.161" fill="#b4b5b5" d="M 265.5,327.5 C 264.713,329.104 263.38,329.771 261.5,329.5C 262.514,328.326 263.847,327.66 265.5,327.5 Z"/></g>
<g><path style="opacity:0.969" fill="#787978" d="M 143.5,332.5 C 148.767,333.589 153.767,335.256 158.5,337.5C 153.085,336.806 148.085,335.14 143.5,332.5 Z"/></g>
<g><path style="opacity:0.682" fill="#929292" d="M 158.5,337.5 C 161.428,337.565 164.095,338.232 166.5,339.5C 163.505,339.706 160.838,339.04 158.5,337.5 Z"/></g>
<g><path style="opacity:0.027" fill="#c6c6c6" d="M 239.5,337.5 C 237.485,338.924 235.152,339.59 232.5,339.5C 234.515,338.076 236.848,337.41 239.5,337.5 Z"/></g>
<g><path style="opacity:0.055" fill="#b5b6b6" d="M 231.5,339.5 C 224.787,341.55 217.787,342.55 210.5,342.5C 217.308,341.105 224.308,340.105 231.5,339.5 Z"/></g>
<g><path style="opacity:0.545" fill="#7a7a7a" d="M 114.5,329.5 C 113.185,334.744 112.518,340.077 112.5,345.5C 111.362,342.696 111.195,339.696 112,336.5C 112.156,333.809 112.989,331.476 114.5,329.5 Z"/></g>
<g><path style="opacity:0.882" fill="#7c7d7c" d="M 112.5,346.5 C 113.738,348.214 114.405,350.214 114.5,352.5C 112.72,351.01 112.054,349.01 112.5,346.5 Z"/></g>
<g><path style="opacity:0.71" fill="#8d8f8e" d="M 116.5,356.5 C 118.262,357.262 119.262,358.596 119.5,360.5C 117.738,359.738 116.738,358.404 116.5,356.5 Z"/></g>
<g><path style="opacity:0.839" fill="#878787" d="M 123.5,363.5 C 125.23,364.026 126.564,365.026 127.5,366.5C 125.368,366.446 124.035,365.446 123.5,363.5 Z"/></g>
<g><path style="opacity:0.286" fill="#b4b4b4" d="M 129.5,367.5 C 131.553,367.402 133.22,368.069 134.5,369.5C 132.447,369.598 130.78,368.931 129.5,367.5 Z"/></g>
<g><path style="opacity:0.263" fill="#abadac" d="M 137.5,370.5 C 140.727,370.676 143.727,371.343 146.5,372.5C 143.171,372.785 140.171,372.118 137.5,370.5 Z"/></g>
<g><path style="opacity:0.463" fill="#a2a2a2" d="M 55.5,369.5 C 57.0739,371.102 57.7406,373.102 57.5,375.5C 56.2616,373.786 55.595,371.786 55.5,369.5 Z"/></g>
<g><path style="opacity:0.143" fill="#cbcdcc" d="M 146.5,372.5 C 191.501,372.333 236.501,372.5 281.5,373C 284.365,373.183 287.031,373.683 289.5,374.5C 241.675,373.883 194.008,373.217 146.5,372.5 Z"/></g>
<g><path style="opacity:0.133" fill="#a7a7a7" d="M 294.5,375.5 C 297.495,375.294 300.162,375.96 302.5,377.5C 299.572,377.435 296.905,376.768 294.5,375.5 Z"/></g>
<g><path style="opacity:0.208" fill="#aaabab" d="M 316.5,382.5 C 319.089,382.461 321.089,383.461 322.5,385.5C 320.181,385.008 318.181,384.008 316.5,382.5 Z"/></g>
<g><path style="opacity:0.024" fill="#d7d9d8" d="M 63.5,390.5 C 64.3382,390.842 64.6716,391.508 64.5,392.5C 62.3023,392.591 61.9689,391.925 63.5,390.5 Z"/></g>
<g><path style="opacity:0.012" fill="#c7c8c8" d="M 333.5,392.5 C 335.027,392.427 336.027,393.094 336.5,394.5C 334.973,394.573 333.973,393.906 333.5,392.5 Z"/></g>
<g><path style="opacity:0.949" fill="#6c6c6c" d="M 67.5,397.5 C 69.4456,398.035 70.4456,399.368 70.5,401.5C 69.0256,400.564 68.0256,399.23 67.5,397.5 Z"/></g>
<g><path style="opacity:0.808" fill="#848685" d="M 344.5,402.5 C 346.587,403.585 347.92,405.251 348.5,407.5C 346.413,406.415 345.08,404.749 344.5,402.5 Z"/></g>
<g><path style="opacity:0.008" fill="#c3c3c3" d="M 73.5,405.5 C 75.5869,406.585 76.9202,408.251 77.5,410.5C 75.4131,409.415 74.0798,407.749 73.5,405.5 Z"/></g>
<g><path style="opacity:0.776" fill="#838483" d="M 348.5,407.5 C 350.262,408.262 351.262,409.596 351.5,411.5C 349.738,410.738 348.738,409.404 348.5,407.5 Z"/></g>
<g><path style="opacity:0.039" fill="#efefef" d="M 77.5,410.5 C 78.5,410.833 79.1667,411.5 79.5,412.5C 78.1667,412.5 77.5,411.833 77.5,410.5 Z"/></g>
<g><path style="opacity:0.565" fill="#a8a8a8" d="M 79.5,412.5 C 81.4044,412.738 82.7377,413.738 83.5,415.5C 81.5956,415.262 80.2623,414.262 79.5,412.5 Z"/></g>
<g><path style="opacity:0.369" fill="#a0a1a1" d="M 351.5,411.5 C 352.906,411.973 353.573,412.973 353.5,414.5C 352.094,414.027 351.427,413.027 351.5,411.5 Z"/></g>
<g><path style="opacity:0.18" fill="#bfc1c0" d="M 353.5,414.5 C 354.906,414.973 355.573,415.973 355.5,417.5C 354.094,417.027 353.427,416.027 353.5,414.5 Z"/></g>
<g><path style="opacity:0.639" fill="#959595" d="M 85.5,417.5 C 87.0269,417.427 88.0269,418.094 88.5,419.5C 86.9731,419.573 85.9731,418.906 85.5,417.5 Z"/></g>
<g><path style="opacity:0.584" fill="#8c8e8d" d="M 88.5,419.5 C 90.4044,419.738 91.7377,420.738 92.5,422.5C 90.5956,422.262 89.2623,421.262 88.5,419.5 Z"/></g>
<g><path style="opacity:0.369" fill="#9a9c9b" d="M 94.5,423.5 C 96.0269,423.427 97.0269,424.094 97.5,425.5C 95.9731,425.573 94.9731,424.906 94.5,423.5 Z"/></g>
<g><path style="opacity:0.82" fill="#7f7f7f" d="M 358.5,423.5 C 359.537,424.93 360.204,426.597 360.5,428.5C 358.787,427.365 358.12,425.698 358.5,423.5 Z"/></g>
<g><path style="opacity:0.855" fill="#737574" d="M 110.5,431.5 C 112.698,431.12 114.365,431.787 115.5,433.5C 113.597,433.204 111.93,432.537 110.5,431.5 Z"/></g>
<g><path style="opacity:0.667" fill="#9d9d9d" d="M 361.5,431.5 C 362.738,433.214 363.405,435.214 363.5,437.5C 361.926,435.898 361.259,433.898 361.5,431.5 Z"/></g>
<g><path style="opacity:0.51" fill="#8c8c8c" d="M 120.5,434.5 C 123.152,434.41 125.485,435.076 127.5,436.5C 124.848,436.59 122.515,435.924 120.5,434.5 Z"/></g>
<g><path style="opacity:0.741" fill="#8d8e8d" d="M 276.5,439.5 C 282.51,438.741 287.843,440.075 292.5,443.5C 287.132,441.825 281.798,440.491 276.5,439.5 Z"/></g>
<g><path style="opacity:0.4" fill="#a5a7a6" d="M 363.5,439.5 C 365.04,441.838 365.706,444.505 365.5,447.5C 364.232,445.095 363.565,442.428 363.5,439.5 Z"/></g>
<g><path style="opacity:0.471" fill="#838584" d="M 302.5,453.5 C 303.117,453.611 303.617,453.944 304,454.5C 306.137,460.703 305.971,466.703 303.5,472.5C 305.069,466.056 304.735,459.722 302.5,453.5 Z"/></g>
<g><path style="opacity:0.408" fill="#929493" d="M 365.5,450.5 C 366.657,458.656 366.823,466.99 366,475.5C 365.689,479.09 364.856,482.423 363.5,485.5C 365.192,473.907 365.858,462.24 365.5,450.5 Z"/></g>
<g><path style="opacity:0.424" fill="#999999" d="M 301.5,477.5 C 301.573,479.027 300.906,480.027 299.5,480.5C 299.427,478.973 300.094,477.973 301.5,477.5 Z"/></g>
<g><path style="opacity:0.667" fill="#858585" d="M 299.5,480.5 C 298.404,483.386 296.404,485.386 293.5,486.5C 295.027,484.061 297.027,482.061 299.5,480.5 Z"/></g>
<g><path style="opacity:0.022" fill="#d0d1d0" d="M 293.5,486.5 C 293.158,487.338 292.492,487.672 291.5,487.5C 291.409,485.302 292.075,484.969 293.5,486.5 Z"/></g>
<g><path style="opacity:0.706" fill="#878787" d="M 289.5,488.5 C 287.081,490.862 284.081,491.862 280.5,491.5C 283.341,490.331 286.341,489.331 289.5,488.5 Z"/></g>
<g><path style="opacity:0.016" fill="#cbcccb" d="M 345.5,520.5 C 345.573,522.027 344.906,523.027 343.5,523.5C 343.427,521.973 344.094,520.973 345.5,520.5 Z"/></g>
<g><path style="opacity:0.008" fill="#f2f3f3" d="M 341.5,525.5 C 341.5,526.833 340.833,527.5 339.5,527.5C 339.833,526.5 340.5,525.833 341.5,525.5 Z"/></g>
<g><path style="opacity:0.012" fill="#dddddd" d="M 339.5,527.5 C 338.965,529.446 337.632,530.446 335.5,530.5C 336.436,529.026 337.77,528.026 339.5,527.5 Z"/></g>
<g><path style="opacity:0.004" fill="#d8d8d8" d="M 326.5,537.5 C 326.027,538.906 325.027,539.573 323.5,539.5C 323.973,538.094 324.973,537.427 326.5,537.5 Z"/></g>
<g><path style="opacity:0.039" fill="#dddddd" d="M 321.5,540.5 C 321.842,539.662 322.508,539.328 323.5,539.5C 323.591,541.698 322.925,542.031 321.5,540.5 Z"/></g>
<g><path style="opacity:0.173" fill="#b3b3b3" d="M 317.5,542.5 C 316.713,544.104 315.38,544.771 313.5,544.5C 314.514,543.326 315.847,542.66 317.5,542.5 Z"/></g>
<g><path style="opacity:0.595" fill="#7d7e7e" d="M 271.5,492.5 C 271.333,512.503 271.5,532.503 272,552.5C 277.765,553.414 283.599,553.414 289.5,552.5C 283.499,554.512 277.332,554.845 271,553.5C 270.171,532.996 270.337,512.663 271.5,492.5 Z"/></g>
<g><path style="opacity:0.133" fill="#b9bab9" d="M 306.5,547.5 C 306.5,547.833 306.5,548.167 306.5,548.5C 304.883,549.038 303.216,549.371 301.5,549.5C 302.78,548.069 304.447,547.402 306.5,547.5 Z"/></g>
<g><path style="opacity:0.004" fill="#e7eae8" d="M 306.5,548.5 C 307.833,549.167 307.833,549.167 306.5,548.5 Z"/></g>
<g><path style="opacity:0.004" fill="#eff2f0" d="M 268.5,549.5 C 269.833,550.167 269.833,550.167 268.5,549.5 Z"/></g>
<g><path style="opacity:0.051" fill="#c3c3c3" d="M 297.5,550.5 C 295.162,552.04 292.495,552.706 289.5,552.5C 291.905,551.232 294.572,550.565 297.5,550.5 Z"/></g>
</svg>
