<svg width="422" height="591" viewBox="0 0 422 591" fill="none" xmlns="http://www.w3.org/2000/svg">
<path opacity="0.082" fill-rule="evenodd" clip-rule="evenodd" d="M209.5 86.5C215.404 86.3213 221.071 86.9879 226.5 88.5C220.611 88.5503 214.944 87.8836 209.5 86.5Z" fill="#B2B3B3"/>
<path opacity="0.224" fill-rule="evenodd" clip-rule="evenodd" d="M184.5 86.5C180.057 87.8015 175.391 88.4681 170.5 88.5C174.919 87.0285 179.586 86.3618 184.5 86.5Z" fill="#C1C2C2"/>
<path fill-rule="evenodd" clip-rule="evenodd" d="M209.5 86.5C214.944 87.8836 220.611 88.5503 226.5 88.5C228.099 88.2322 229.432 88.5655 230.5 89.5C234.239 91.1016 238.239 92.1016 242.5 92.5C244.214 93.7384 246.214 94.405 248.5 94.5C250.786 94.595 252.786 95.2616 254.5 96.5C255.78 97.9313 257.447 98.5979 259.5 98.5C261.153 98.6596 262.486 99.3263 263.5 100.5C263.611 101.117 263.944 101.617 264.5 102C301.165 102.5 337.832 102.667 374.5 102.5C375.653 121.093 375.819 139.76 375 158.5C374.617 159.056 374.117 159.389 373.5 159.5C356.5 159.5 339.5 159.5 322.5 159.5C322.263 160.791 322.596 161.791 323.5 162.5C325.4 165.518 326.733 168.851 327.5 172.5C327.41 175.152 328.076 177.485 329.5 179.5C329.565 182.428 330.232 185.095 331.5 187.5C331.5 187.833 331.5 188.167 331.5 188.5C332.347 202.816 332.68 217.149 332.5 231.5C332.214 239.583 330.547 247.249 327.5 254.5C326.262 256.214 325.595 258.214 325.5 260.5C323.15 268.864 319.483 276.531 314.5 283.5C313.094 283.973 312.427 284.973 312.5 286.5C303.812 299.855 292.812 310.855 279.5 319.5C278.29 319.932 277.29 320.599 276.5 321.5C273.322 324.258 269.655 326.258 265.5 327.5C263.847 327.66 262.514 328.326 261.5 329.5C254.749 333.531 247.415 336.197 239.5 337.5C236.848 337.41 234.515 338.076 232.5 339.5C232.167 339.5 231.833 339.5 231.5 339.5C224.308 340.105 217.308 341.105 210.5 342.5C195.582 344.136 180.915 343.136 166.5 339.5C164.095 338.232 161.428 337.565 158.5 337.5C153.767 335.256 148.767 333.589 143.5 332.5C138.291 331.462 133.291 329.129 128.5 325.5C128.027 324.094 127.027 323.427 125.5 323.5C124.508 323.672 123.842 323.338 123.5 322.5C121.833 321.167 120.167 321.167 118.5 322.5C118.5 323.167 118.5 323.833 118.5 324.5C116.926 325.984 115.593 327.651 114.5 329.5C112.989 331.476 112.156 333.809 112 336.5C111.195 339.696 111.362 342.696 112.5 345.5C112.5 345.833 112.5 346.167 112.5 346.5C112.054 349.01 112.72 351.01 114.5 352.5C115.674 353.514 116.34 354.847 116.5 356.5C116.738 358.404 117.738 359.738 119.5 360.5C120.872 361.512 122.205 362.512 123.5 363.5C124.035 365.446 125.368 366.446 127.5 366.5C128.492 366.328 129.158 366.662 129.5 367.5C130.78 368.931 132.447 369.598 134.5 369.5C135.791 369.263 136.791 369.596 137.5 370.5C140.171 372.118 143.171 372.785 146.5 372.5C194.008 373.217 241.675 373.883 289.5 374.5C291.415 374.216 293.081 374.549 294.5 375.5C296.905 376.768 299.572 377.435 302.5 377.5C307.669 377.999 312.336 379.666 316.5 382.5C318.181 384.008 320.181 385.008 322.5 385.5C326.976 386.657 330.642 388.99 333.5 392.5C333.973 393.906 334.973 394.573 336.5 394.5C339.5 396.833 342.167 399.5 344.5 402.5C345.08 404.749 346.413 406.415 348.5 407.5C348.738 409.404 349.738 410.738 351.5 411.5C351.427 413.027 352.094 414.027 353.5 414.5C353.427 416.027 354.094 417.027 355.5 417.5C357.008 419.181 358.008 421.181 358.5 423.5C358.12 425.698 358.787 427.365 360.5 428.5C361.11 429.391 361.443 430.391 361.5 431.5C361.259 433.898 361.926 435.898 363.5 437.5C363.5 438.167 363.5 438.833 363.5 439.5C363.565 442.428 364.232 445.095 365.5 447.5C365.5 448.5 365.5 449.5 365.5 450.5C365.858 462.24 365.192 473.907 363.5 485.5C360.904 499.028 354.904 510.695 345.5 520.5C344.094 520.973 343.427 521.973 343.5 523.5C343.167 524.5 342.5 525.167 341.5 525.5C340.5 525.833 339.833 526.5 339.5 527.5C337.77 528.026 336.436 529.026 335.5 530.5C333.082 533.547 330.082 535.88 326.5 537.5C324.973 537.427 323.973 538.094 323.5 539.5C322.508 539.328 321.842 539.662 321.5 540.5C320.486 541.674 319.153 542.34 317.5 542.5C315.847 542.66 314.514 543.326 313.5 544.5C311.574 546.293 309.241 547.293 306.5 547.5C304.447 547.402 302.78 548.069 301.5 549.5C300.292 550.234 298.959 550.567 297.5 550.5C294.572 550.565 291.905 551.232 289.5 552.5C283.599 553.414 277.765 553.414 272 552.5C271.5 532.503 271.333 512.503 271.5 492.5C274.391 491.597 277.391 491.264 280.5 491.5C284.081 491.862 287.081 490.862 289.5 488.5C289.842 487.662 290.508 487.328 291.5 487.5C292.492 487.672 293.158 487.338 293.5 486.5C296.404 485.386 298.404 483.386 299.5 480.5C300.906 480.027 301.573 479.027 301.5 477.5C301.796 475.597 302.463 473.93 303.5 472.5C305.971 466.703 306.137 460.703 304 454.5C303.617 453.944 303.117 453.611 302.5 453.5C300.139 449.139 296.806 445.806 292.5 443.5C287.843 440.075 282.51 438.741 276.5 439.5C231.165 439.667 185.832 439.5 140.5 439C135.953 438.571 131.619 437.738 127.5 436.5C125.485 435.076 123.152 434.41 120.5 434.5C118.708 434.634 117.042 434.301 115.5 433.5C114.365 431.787 112.698 431.12 110.5 431.5C105.749 430.29 101.416 428.29 97.5001 425.5C97.027 424.094 96.027 423.427 94.5001 423.5C93.5085 423.672 92.8418 423.338 92.5001 422.5C91.7378 420.738 90.4045 419.738 88.5001 419.5C88.027 418.094 87.027 417.427 85.5001 417.5C84.5001 417.167 83.8334 416.5 83.5001 415.5C82.7378 413.738 81.4045 412.738 79.5001 412.5C79.1668 411.5 78.5001 410.833 77.5001 410.5C76.9203 408.251 75.587 406.585 73.5001 405.5C71.7377 404.738 70.7377 403.404 70.5001 401.5C70.4457 399.368 69.4457 398.035 67.5001 397.5C66.2633 396.035 65.2633 394.368 64.5001 392.5C64.6717 391.508 64.3383 390.842 63.5001 390.5C60.7043 385.895 58.7043 380.895 57.5001 375.5C57.7407 373.102 57.074 371.102 55.5001 369.5C52.0506 355.438 51.7173 341.438 54.5001 327.5C56.2767 324.495 57.2767 321.162 57.5001 317.5C58.659 313.849 60.3257 310.515 62.5001 307.5C63.9064 307.027 64.5731 306.027 64.5001 304.5C66.2182 302.777 67.5515 300.777 68.5001 298.5C68.8334 297.5 69.5001 296.833 70.5001 296.5C72.2625 295.738 73.2625 294.404 73.5001 292.5C76.3452 289.488 79.0119 286.321 81.5001 283C76.2614 274.358 72.2614 265.191 69.5001 255.5C69.5906 252.848 68.9239 250.515 67.5001 248.5C67.5001 248.167 67.5001 247.833 67.5001 247.5C66.9902 242.609 65.9902 237.942 64.5001 233.5C64.5001 233.167 64.5001 232.833 64.5001 232.5C63.8517 222.847 63.5184 213.18 63.5001 203.5C63.4389 196.546 64.4389 189.879 66.5001 183.5C68.4836 180.201 69.4836 176.534 69.5001 172.5C69.2628 171.209 69.5961 170.209 70.5001 169.5C72.2133 168.365 72.88 166.698 72.5001 164.5C74.2133 163.365 74.88 161.698 74.5001 159.5C74.9926 157.181 75.9926 155.181 77.5001 153.5C78.9064 153.027 79.5731 152.027 79.5001 150.5C77.969 149.075 78.3024 148.409 80.5001 148.5C81.9064 148.027 82.5731 147.027 82.5001 145.5C83.9064 145.027 84.5731 144.027 84.5001 142.5C85.9064 142.027 86.5731 141.027 86.5001 139.5C88.2625 138.738 89.2625 137.404 89.5001 135.5C90.9745 134.564 91.9745 133.23 92.5001 131.5C93.5001 131.167 94.1668 130.5 94.5001 129.5C94.8334 128.5 95.5001 127.833 96.5001 127.5C98.5001 126.167 100.167 124.5 101.5 122.5C102.167 121.167 103.167 120.167 104.5 119.5C106.23 118.974 107.564 117.974 108.5 116.5C108.833 115.5 109.5 114.833 110.5 114.5C111.71 114.068 112.71 113.401 113.5 112.5C115.027 112.573 116.027 111.906 116.5 110.5C116.5 109.833 116.833 109.5 117.5 109.5C119.368 108.737 121.035 107.737 122.5 106.5C123.71 106.068 124.71 105.401 125.5 104.5C125.842 103.662 126.508 103.328 127.5 103.5C128.492 103.672 129.158 103.338 129.5 102.5C129.842 101.662 130.508 101.328 131.5 101.5C132.492 101.672 133.158 101.338 133.5 100.5C137.593 99.6176 141.26 97.951 144.5 95.5C145.708 94.7659 147.041 94.4326 148.5 94.5C153.054 93.6159 157.387 92.2825 161.5 90.5C164.495 90.7062 167.162 90.0395 169.5 88.5C169.833 88.5 170.167 88.5 170.5 88.5C175.391 88.4681 180.057 87.8015 184.5 86.5C192.883 85.2617 201.217 85.2617 209.5 86.5ZM207.5 148.5C210.096 149.265 212.763 149.599 215.5 149.5C217.214 150.738 219.214 151.405 221.5 151.5C221.833 151.5 222.167 151.5 222.5 151.5C223.78 152.931 225.447 153.598 227.5 153.5C229.849 155.341 232.515 156.674 235.5 157.5C235.973 158.906 236.973 159.573 238.5 159.5C238.877 161.824 239.877 162.491 241.5 161.5C242.585 163.587 244.251 164.92 246.5 165.5C247.757 168.427 249.757 170.761 252.5 172.5C252.5 173.167 252.833 173.5 253.5 173.5C253.427 175.027 254.094 176.027 255.5 176.5C256.026 178.23 257.026 179.564 258.5 180.5C260.539 185.235 262.539 189.901 264.5 194.5C266.196 204.077 266.863 213.744 266.5 223.5C265.659 225.379 265.325 227.379 265.5 229.5C264.388 231.599 263.721 233.933 263.5 236.5C261.93 239.314 260.597 242.314 259.5 245.5C257.75 246.659 256.75 248.326 256.5 250.5C254.302 250.409 253.969 251.075 255.5 252.5C254.833 252.5 254.5 252.833 254.5 253.5C252.952 253.821 252.285 254.821 252.5 256.5C251.5 256.833 250.833 257.5 250.5 258.5C247.833 260.5 245.5 262.833 243.5 265.5C241.027 265.088 239.694 266.088 239.5 268.5C237.632 267.326 236.632 267.993 236.5 270.5C234.973 270.427 233.973 271.094 233.5 272.5C232.508 272.328 231.842 272.662 231.5 273.5C229.597 273.796 227.93 274.463 226.5 275.5C225.153 276.171 223.986 276.171 223 275.5C222.283 276.044 221.783 276.711 221.5 277.5C218.733 277.858 216.067 278.525 213.5 279.5C203.833 280.833 194.167 280.833 184.5 279.5C180.905 278.303 177.239 277.303 173.5 276.5C172.22 275.069 170.553 274.402 168.5 274.5C166.337 272.917 164.004 271.584 161.5 270.5C160.71 269.599 159.71 268.932 158.5 268.5C157.205 267.512 155.872 266.512 154.5 265.5C153.738 263.738 152.404 262.738 150.5 262.5C150.167 261.5 149.5 260.833 148.5 260.5C148.5 259.167 147.833 258.5 146.5 258.5C145.92 256.251 144.587 254.585 142.5 253.5C142.573 251.973 141.906 250.973 140.5 250.5C140.573 248.973 139.906 247.973 138.5 247.5C138.008 245.181 137.008 243.181 135.5 241.5C135.065 238.843 134.065 236.509 132.5 234.5C131.731 228.996 130.731 223.662 129.5 218.5C129.697 211.12 130.364 203.787 131.5 196.5C132.738 194.786 133.405 192.786 133.5 190.5C134.338 190.158 134.672 189.492 134.5 188.5C135.674 187.486 136.34 186.153 136.5 184.5C136.5 184.167 136.5 183.833 136.5 183.5C138.25 182.341 139.25 180.674 139.5 178.5C141.156 176.54 142.823 174.54 144.5 172.5C145.906 172.027 146.573 171.027 146.5 169.5C147.833 169.5 148.5 168.833 148.5 167.5C150.404 167.262 151.738 166.262 152.5 164.5C158.235 160.304 164.235 156.637 170.5 153.5C172.553 153.598 174.22 152.931 175.5 151.5C178.152 151.59 180.485 150.924 182.5 149.5C182.833 149.5 183.167 149.5 183.5 149.5C191.471 148.677 199.471 148.344 207.5 148.5Z" fill="white"/>
<path opacity="0.682" fill-rule="evenodd" clip-rule="evenodd" d="M169.5 88.5C167.162 90.0395 164.495 90.7062 161.5 90.5C163.448 89.8688 165.281 88.8688 167 87.5C167.671 88.2524 168.504 88.5858 169.5 88.5Z" fill="#9B9D9C"/>
<path opacity="0.122" fill-rule="evenodd" clip-rule="evenodd" d="M230.5 89.5C234.837 89.5841 238.837 90.5841 242.5 92.5C238.239 92.1016 234.239 91.1016 230.5 89.5Z" fill="#AAAAAA"/>
<path opacity="0.62" fill-rule="evenodd" clip-rule="evenodd" d="M161.5 90.5C157.387 92.2825 153.054 93.6159 148.5 94.5C149.688 93.6364 150.855 92.6364 152 91.5C154.498 92.1212 156.832 91.4545 159 89.5C159.671 90.2524 160.504 90.5858 161.5 90.5Z" fill="#919191"/>
<path opacity="0.016" fill-rule="evenodd" clip-rule="evenodd" d="M242.5 92.5C244.898 92.2594 246.898 92.9261 248.5 94.5C246.214 94.405 244.214 93.7384 242.5 92.5Z" fill="#BBBBBB"/>
<path opacity="0.01" fill-rule="evenodd" clip-rule="evenodd" d="M144.5 95.5C141.26 97.951 137.593 99.6176 133.5 100.5C135.674 98.9186 138.007 97.4186 140.5 96C141.793 95.51 143.127 95.3433 144.5 95.5Z" fill="#C9CBCA"/>
<path opacity="0.239" fill-rule="evenodd" clip-rule="evenodd" d="M254.5 96.5C256.553 96.4021 258.22 97.0687 259.5 98.5C257.447 98.5979 255.78 97.9313 254.5 96.5Z" fill="#B9BBBA"/>
<path opacity="0.11" fill-rule="evenodd" clip-rule="evenodd" d="M133.5 100.5C133.158 101.338 132.492 101.672 131.5 101.5C131.409 99.3023 132.075 98.9689 133.5 100.5Z" fill="#CED0CF"/>
<path opacity="0.874" fill-rule="evenodd" clip-rule="evenodd" d="M263.5 100.5C299.835 100.333 336.168 100.5 372.5 101C374.343 101.159 375.009 101.659 374.5 102.5C337.832 102.667 301.165 102.5 264.5 102C263.944 101.617 263.611 101.117 263.5 100.5Z" fill="#585959"/>
<path opacity="0.086" fill-rule="evenodd" clip-rule="evenodd" d="M129.5 102.5C129.158 103.338 128.492 103.672 127.5 103.5C127.409 101.302 128.075 100.969 129.5 102.5Z" fill="#D5D5D5"/>
<path opacity="0.01" fill-rule="evenodd" clip-rule="evenodd" d="M125.5 104.5C124.71 105.401 123.71 106.068 122.5 106.5C122.821 104.952 123.821 104.285 125.5 104.5Z" fill="#E7E8E7"/>
<path opacity="0.059" fill-rule="evenodd" clip-rule="evenodd" d="M122.5 106.5C121.035 107.737 119.368 108.737 117.5 109.5C118.3 107.259 119.966 106.259 122.5 106.5Z" fill="#DDDEDE"/>
<path opacity="0.725" fill-rule="evenodd" clip-rule="evenodd" d="M116.5 110.5C116.027 111.906 115.027 112.573 113.5 112.5C113.877 110.176 114.877 109.509 116.5 110.5Z" fill="#909291"/>
<path opacity="0.02" fill-rule="evenodd" clip-rule="evenodd" d="M113.5 112.5C112.71 113.401 111.71 114.068 110.5 114.5C110.821 112.952 111.821 112.285 113.5 112.5Z" fill="#E3E3E3"/>
<path opacity="0.082" fill-rule="evenodd" clip-rule="evenodd" d="M108.5 116.5C107.564 117.974 106.23 118.974 104.5 119.5C105.035 117.554 106.368 116.554 108.5 116.5Z" fill="#CCCCCC"/>
<path opacity="0.38" fill-rule="evenodd" clip-rule="evenodd" d="M101.5 122.5C100.167 124.5 98.5 126.167 96.5 127.5C97.1667 124.833 98.8333 123.167 101.5 122.5Z" fill="#BBBCBC"/>
<path opacity="0.133" fill-rule="evenodd" clip-rule="evenodd" d="M94.5 129.5C94.1667 130.5 93.5 131.167 92.5 131.5C92.5 130.167 93.1667 129.5 94.5 129.5Z" fill="#DCDCDC"/>
<path opacity="0.333" fill-rule="evenodd" clip-rule="evenodd" d="M92.5 131.5C91.9744 133.23 90.9744 134.564 89.5 135.5C89.5544 133.368 90.5544 132.035 92.5 131.5Z" fill="#C4C5C4"/>
<path opacity="0.565" fill-rule="evenodd" clip-rule="evenodd" d="M89.5 135.5C89.2624 137.404 88.2624 138.738 86.5 139.5C86.7376 137.596 87.7376 136.262 89.5 135.5Z" fill="#8A8C8B"/>
<path opacity="0.51" fill-rule="evenodd" clip-rule="evenodd" d="M86.5 139.5C86.573 141.027 85.9063 142.027 84.5 142.5C84.427 140.973 85.0937 139.973 86.5 139.5Z" fill="#8B8D8C"/>
<path opacity="0.776" fill-rule="evenodd" clip-rule="evenodd" d="M84.4999 142.5C84.5729 144.027 83.9062 145.027 82.4999 145.5C81.5091 143.877 82.1758 142.877 84.4999 142.5Z" fill="#878887"/>
<path opacity="0.373" fill-rule="evenodd" clip-rule="evenodd" d="M82.5 145.5C82.573 147.027 81.9063 148.027 80.5 148.5C80.427 146.973 81.0937 145.973 82.5 145.5Z" fill="#9C9C9C"/>
<path opacity="0.169" fill-rule="evenodd" clip-rule="evenodd" d="M207.5 148.5C199.471 148.344 191.471 148.677 183.5 149.5C187.896 147.967 192.563 147.3 197.5 147.5C201.018 147.502 204.351 147.835 207.5 148.5Z" fill="#B2B4B3"/>
<path opacity="0.706" fill-rule="evenodd" clip-rule="evenodd" d="M215.5 149.5C217.898 149.259 219.898 149.926 221.5 151.5C219.214 151.405 217.214 150.738 215.5 149.5Z" fill="#919392"/>
<path opacity="0.02" fill-rule="evenodd" clip-rule="evenodd" d="M182.5 149.5C180.485 150.924 178.152 151.59 175.5 151.5C177.515 150.076 179.848 149.41 182.5 149.5Z" fill="#C5C5C5"/>
<path opacity="0.929" fill-rule="evenodd" clip-rule="evenodd" d="M222.5 151.5C224.698 151.12 226.365 151.787 227.5 153.5C225.447 153.598 223.78 152.931 222.5 151.5Z" fill="#6B6C6C"/>
<path opacity="0.263" fill-rule="evenodd" clip-rule="evenodd" d="M79.5 150.5C79.573 152.027 78.9063 153.027 77.5 153.5C77.427 151.973 78.0937 150.973 79.5 150.5Z" fill="#ADAFAE"/>
<path opacity="0.102" fill-rule="evenodd" clip-rule="evenodd" d="M175.5 151.5C174.22 152.931 172.553 153.598 170.5 153.5C171.78 152.069 173.447 151.402 175.5 151.5Z" fill="#C4C6C5"/>
<path opacity="0.376" fill-rule="evenodd" clip-rule="evenodd" d="M235.5 157.5C237.027 157.427 238.027 158.094 238.5 159.5C236.973 159.573 235.973 158.906 235.5 157.5Z" fill="#9B9D9C"/>
<path opacity="0.526" fill-rule="evenodd" clip-rule="evenodd" d="M373.5 159.5C356.642 159.838 339.975 160.838 323.5 162.5C322.596 161.791 322.263 160.791 322.5 159.5C339.5 159.5 356.5 159.5 373.5 159.5Z" fill="#757776"/>
<path opacity="0.01" fill-rule="evenodd" clip-rule="evenodd" d="M238.5 159.5C240.027 159.427 241.027 160.094 241.5 161.5C239.877 162.491 238.877 161.824 238.5 159.5Z" fill="#B3B5B4"/>
<path opacity="0.831" fill-rule="evenodd" clip-rule="evenodd" d="M241.5 161.5C243.749 162.08 245.415 163.413 246.5 165.5C244.251 164.92 242.585 163.587 241.5 161.5Z" fill="#818281"/>
<path opacity="0.016" fill-rule="evenodd" clip-rule="evenodd" d="M325.5 161.5C326.833 162.167 326.833 162.167 325.5 161.5Z" fill="#EEEFEE"/>
<path opacity="0.867" fill-rule="evenodd" clip-rule="evenodd" d="M74.5 159.5C74.8799 161.698 74.2132 163.365 72.5 164.5C72.7959 162.597 73.4625 160.93 74.5 159.5Z" fill="#737373"/>
<path opacity="0.01" fill-rule="evenodd" clip-rule="evenodd" d="M152.5 164.5C151.738 166.262 150.404 167.262 148.5 167.5C149.262 165.738 150.596 164.738 152.5 164.5Z" fill="#D1D3D2"/>
<path opacity="0.016" fill-rule="evenodd" clip-rule="evenodd" d="M246.5 165.5C249.243 167.239 251.243 169.573 252.5 172.5C249.757 170.761 247.757 168.427 246.5 165.5Z" fill="#BCBDBC"/>
<path opacity="0.867" fill-rule="evenodd" clip-rule="evenodd" d="M72.5001 164.5C72.88 166.698 72.2133 168.365 70.5001 169.5C70.4022 167.447 71.0688 165.78 72.5001 164.5Z" fill="#7E7E7E"/>
<path opacity="0.01" fill-rule="evenodd" clip-rule="evenodd" d="M148.5 167.5C148.5 168.833 147.833 169.5 146.5 169.5C146.833 168.5 147.5 167.833 148.5 167.5Z" fill="#C6C7C7"/>
<path opacity="0.01" fill-rule="evenodd" clip-rule="evenodd" d="M146.5 169.5C146.573 171.027 145.906 172.027 144.5 172.5C144.427 170.973 145.094 169.973 146.5 169.5Z" fill="#C7C7C7"/>
<path opacity="0.012" fill-rule="evenodd" clip-rule="evenodd" d="M253.5 173.5C254.906 173.973 255.573 174.973 255.5 176.5C254.094 176.027 253.427 175.027 253.5 173.5Z" fill="#D1D3D2"/>
<path opacity="0.78" fill-rule="evenodd" clip-rule="evenodd" d="M327.5 172.5C328.924 174.515 329.59 176.848 329.5 179.5C328.076 177.485 327.41 175.152 327.5 172.5Z" fill="#808080"/>
<path opacity="0.867" fill-rule="evenodd" clip-rule="evenodd" d="M69.5 172.5C69.4835 176.534 68.4835 180.201 66.5 183.5C66.7424 179.521 67.7424 175.854 69.5 172.5Z" fill="#818181"/>
<path opacity="0.859" fill-rule="evenodd" clip-rule="evenodd" d="M255.5 176.5C257.446 177.035 258.446 178.368 258.5 180.5C257.026 179.564 256.026 178.23 255.5 176.5Z" fill="#808281"/>
<path opacity="0.992" fill-rule="evenodd" clip-rule="evenodd" d="M139.5 178.5C139.25 180.674 138.25 182.341 136.5 183.5C136.241 181.011 137.241 179.344 139.5 178.5Z" fill="#686969"/>
<path opacity="0.651" fill-rule="evenodd" clip-rule="evenodd" d="M329.5 179.5C331.04 181.838 331.706 184.505 331.5 187.5C330.232 185.095 329.565 182.428 329.5 179.5Z" fill="#989998"/>
<path opacity="0.278" fill-rule="evenodd" clip-rule="evenodd" d="M136.5 184.5C136.34 186.153 135.674 187.486 134.5 188.5C134.229 186.62 134.896 185.287 136.5 184.5Z" fill="#BABABA"/>
<path opacity="0.573" fill-rule="evenodd" clip-rule="evenodd" d="M133.5 190.5C133.405 192.786 132.738 194.786 131.5 196.5C131.259 194.102 131.926 192.102 133.5 190.5Z" fill="#898989"/>
<path opacity="0.329" fill-rule="evenodd" clip-rule="evenodd" d="M131.5 196.5C130.364 203.787 129.697 211.12 129.5 218.5C128.184 211.028 128.851 203.695 131.5 196.5Z" fill="#8C8D8D"/>
<path opacity="0.01" fill-rule="evenodd" clip-rule="evenodd" d="M264.5 194.5C265.776 196.562 266.61 198.896 267 201.5C267.822 209.012 267.655 216.345 266.5 223.5C266.863 213.744 266.196 204.077 264.5 194.5Z" fill="#C7C8C8"/>
<path opacity="0.09" fill-rule="evenodd" clip-rule="evenodd" d="M63.4999 203.5C63.5182 213.18 63.8515 222.847 64.4999 232.5C62.4685 222.877 62.1352 213.211 63.4999 203.5Z" fill="#CED0CF"/>
<path opacity="0.682" fill-rule="evenodd" clip-rule="evenodd" d="M331.5 188.5C334.404 203.095 334.737 217.429 332.5 231.5C332.68 217.149 332.347 202.816 331.5 188.5Z" fill="#868787"/>
<path opacity="0.792" fill-rule="evenodd" clip-rule="evenodd" d="M265.5 229.5C265.829 232.228 265.163 234.562 263.5 236.5C263.721 233.933 264.388 231.599 265.5 229.5Z" fill="#878787"/>
<path opacity="0.941" fill-rule="evenodd" clip-rule="evenodd" d="M132.5 234.5C134.065 236.509 135.065 238.843 135.5 241.5C133.166 239.824 132.166 237.491 132.5 234.5Z" fill="#727272"/>
<path opacity="0.271" fill-rule="evenodd" clip-rule="evenodd" d="M64.5 233.5C65.9901 237.942 66.9901 242.609 67.5 247.5C65.4983 243.167 64.4983 238.5 64.5 233.5Z" fill="#9B9D9C"/>
<path opacity="0.082" fill-rule="evenodd" clip-rule="evenodd" d="M259.5 245.5C259.25 247.674 258.25 249.341 256.5 250.5C256.75 248.326 257.75 246.659 259.5 245.5Z" fill="#CFD1D0"/>
<path opacity="0.31" fill-rule="evenodd" clip-rule="evenodd" d="M138.5 247.5C139.906 247.973 140.573 248.973 140.5 250.5C139.094 250.027 138.427 249.027 138.5 247.5Z" fill="#AFB0B0"/>
<path opacity="0.067" fill-rule="evenodd" clip-rule="evenodd" d="M256.5 250.5C256.672 251.492 256.338 252.158 255.5 252.5C253.969 251.075 254.302 250.409 256.5 250.5Z" fill="#D3D3D3"/>
<path opacity="0.024" fill-rule="evenodd" clip-rule="evenodd" d="M67.4998 248.5C68.9236 250.515 69.5903 252.848 69.4998 255.5C68.076 253.485 67.4093 251.152 67.4998 248.5Z" fill="#B9B9B9"/>
<path opacity="0.333" fill-rule="evenodd" clip-rule="evenodd" d="M140.5 250.5C141.906 250.973 142.573 251.973 142.5 253.5C141.094 253.027 140.427 252.027 140.5 250.5Z" fill="#AEAEAE"/>
<path opacity="0.773" fill-rule="evenodd" clip-rule="evenodd" d="M142.5 253.5C144.587 254.585 145.92 256.251 146.5 258.5C144.413 257.415 143.08 255.749 142.5 253.5Z" fill="#929292"/>
<path opacity="0.02" fill-rule="evenodd" clip-rule="evenodd" d="M254.5 253.5C254.068 254.71 253.401 255.71 252.5 256.5C252.285 254.821 252.952 253.821 254.5 253.5Z" fill="#DEDEDE"/>
<path opacity="0.01" fill-rule="evenodd" clip-rule="evenodd" d="M327.5 254.5C327.741 256.898 327.074 258.898 325.5 260.5C325.595 258.214 326.262 256.214 327.5 254.5Z" fill="#BDBDBD"/>
<path opacity="0.01" fill-rule="evenodd" clip-rule="evenodd" d="M146.5 258.5C147.833 258.5 148.5 259.167 148.5 260.5C147.5 260.167 146.833 259.5 146.5 258.5Z" fill="#CBCCCC"/>
<path opacity="0.012" fill-rule="evenodd" clip-rule="evenodd" d="M150.5 262.5C152.404 262.738 153.738 263.738 154.5 265.5C152.596 265.262 151.262 264.262 150.5 262.5Z" fill="#C2C2C2"/>
<path opacity="0.769" fill-rule="evenodd" clip-rule="evenodd" d="M250.5 258.5C249.167 261.833 246.833 264.167 243.5 265.5C245.5 262.833 247.833 260.5 250.5 258.5Z" fill="#727272"/>
<path opacity="0.022" fill-rule="evenodd" clip-rule="evenodd" d="M243.5 265.5C242.564 266.974 241.23 267.974 239.5 268.5C239.694 266.088 241.027 265.088 243.5 265.5Z" fill="#D8D8D8"/>
<path opacity="0.02" fill-rule="evenodd" clip-rule="evenodd" d="M239.5 268.5C238.71 269.401 237.71 270.068 236.5 270.5C236.632 267.993 237.632 267.326 239.5 268.5Z" fill="#E2E3E3"/>
<path opacity="0.89" fill-rule="evenodd" clip-rule="evenodd" d="M158.5 268.5C159.71 268.932 160.71 269.599 161.5 270.5C159.821 270.715 158.821 270.048 158.5 268.5Z" fill="#757675"/>
<path opacity="0.647" fill-rule="evenodd" clip-rule="evenodd" d="M236.5 270.5C236.027 271.906 235.027 272.573 233.5 272.5C233.973 271.094 234.973 270.427 236.5 270.5Z" fill="#8B8D8C"/>
<path opacity="0.859" fill-rule="evenodd" clip-rule="evenodd" d="M231.5 273.5C230.365 275.213 228.698 275.88 226.5 275.5C227.93 274.463 229.597 273.796 231.5 273.5Z" fill="#757575"/>
<path opacity="0.298" fill-rule="evenodd" clip-rule="evenodd" d="M168.5 274.5C170.553 274.402 172.22 275.069 173.5 276.5C171.447 276.598 169.78 275.931 168.5 274.5Z" fill="#AEAEAE"/>
<path opacity="0.737" fill-rule="evenodd" clip-rule="evenodd" d="M226.5 275.5C225.365 277.213 223.698 277.88 221.5 277.5C221.783 276.711 222.283 276.044 223 275.5C223.986 276.171 225.153 276.171 226.5 275.5Z" fill="#989898"/>
<path opacity="0.122" fill-rule="evenodd" clip-rule="evenodd" d="M184.5 279.5C194.167 280.833 203.833 280.833 213.5 279.5C208.767 281.046 203.767 281.713 198.5 281.5C194.833 281.333 191.167 281.167 187.5 281C186.263 280.768 185.263 280.268 184.5 279.5Z" fill="#B4B6B5"/>
<path opacity="0.01" fill-rule="evenodd" clip-rule="evenodd" d="M314.5 283.5C314.573 285.027 313.906 286.027 312.5 286.5C312.427 284.973 313.094 283.973 314.5 283.5Z" fill="#C7C8C7"/>
<path opacity="0.757" fill-rule="evenodd" clip-rule="evenodd" d="M73.5 292.5C73.2624 294.404 72.2624 295.738 70.5 296.5C70.7376 294.596 71.7376 293.262 73.5 292.5Z" fill="#7C7E7D"/>
<path opacity="0.067" fill-rule="evenodd" clip-rule="evenodd" d="M68.5 298.5C67.5514 300.777 66.2181 302.777 64.5 304.5C64.6225 301.708 65.9558 299.708 68.5 298.5Z" fill="#C0C2C1"/>
<path opacity="0.384" fill-rule="evenodd" clip-rule="evenodd" d="M64.5 304.5C64.573 306.027 63.9063 307.027 62.5 307.5C62.427 305.973 63.0937 304.973 64.5 304.5Z" fill="#9A9B9A"/>
<path opacity="0.765" fill-rule="evenodd" clip-rule="evenodd" d="M57.5 317.5C57.2766 321.162 56.2766 324.495 54.5 327.5C54.7234 323.838 55.7234 320.505 57.5 317.5Z" fill="#878888"/>
<path opacity="0.01" fill-rule="evenodd" clip-rule="evenodd" d="M279.5 319.5C279.179 321.048 278.179 321.715 276.5 321.5C277.29 320.599 278.29 319.932 279.5 319.5Z" fill="#E5E7E6"/>
<path opacity="0.051" fill-rule="evenodd" clip-rule="evenodd" d="M118.5 322.5C120.167 321.167 121.833 321.167 123.5 322.5C122.027 323.071 120.36 323.071 118.5 322.5Z" fill="#D9D9D9"/>
<path opacity="0.01" fill-rule="evenodd" clip-rule="evenodd" d="M118.5 324.5C119.833 325.167 119.833 325.167 118.5 324.5Z" fill="#EFF0EF"/>
<path opacity="0.373" fill-rule="evenodd" clip-rule="evenodd" d="M125.5 323.5C127.027 323.427 128.027 324.094 128.5 325.5C126.973 325.573 125.973 324.906 125.5 323.5Z" fill="#989898"/>
<path opacity="0.161" fill-rule="evenodd" clip-rule="evenodd" d="M265.5 327.5C264.713 329.104 263.38 329.771 261.5 329.5C262.514 328.326 263.847 327.66 265.5 327.5Z" fill="#B4B5B5"/>
<path opacity="0.969" fill-rule="evenodd" clip-rule="evenodd" d="M143.5 332.5C148.767 333.589 153.767 335.256 158.5 337.5C153.085 336.806 148.085 335.14 143.5 332.5Z" fill="#787978"/>
<path opacity="0.682" fill-rule="evenodd" clip-rule="evenodd" d="M158.5 337.5C161.428 337.565 164.095 338.232 166.5 339.5C163.505 339.706 160.838 339.04 158.5 337.5Z" fill="#929292"/>
<path opacity="0.027" fill-rule="evenodd" clip-rule="evenodd" d="M239.5 337.5C237.485 338.924 235.152 339.59 232.5 339.5C234.515 338.076 236.848 337.41 239.5 337.5Z" fill="#C6C6C6"/>
<path opacity="0.055" fill-rule="evenodd" clip-rule="evenodd" d="M231.5 339.5C224.787 341.55 217.787 342.55 210.5 342.5C217.308 341.105 224.308 340.105 231.5 339.5Z" fill="#B5B6B6"/>
<path opacity="0.545" fill-rule="evenodd" clip-rule="evenodd" d="M114.5 329.5C113.185 334.744 112.518 340.077 112.5 345.5C111.362 342.696 111.195 339.696 112 336.5C112.156 333.809 112.989 331.476 114.5 329.5Z" fill="#7A7A7A"/>
<path opacity="0.882" fill-rule="evenodd" clip-rule="evenodd" d="M112.5 346.5C113.738 348.214 114.405 350.214 114.5 352.5C112.72 351.01 112.054 349.01 112.5 346.5Z" fill="#7C7D7C"/>
<path opacity="0.71" fill-rule="evenodd" clip-rule="evenodd" d="M116.5 356.5C118.262 357.262 119.262 358.596 119.5 360.5C117.738 359.738 116.738 358.404 116.5 356.5Z" fill="#8D8F8E"/>
<path opacity="0.839" fill-rule="evenodd" clip-rule="evenodd" d="M123.5 363.5C125.23 364.026 126.564 365.026 127.5 366.5C125.368 366.446 124.035 365.446 123.5 363.5Z" fill="#878787"/>
<path opacity="0.286" fill-rule="evenodd" clip-rule="evenodd" d="M129.5 367.5C131.553 367.402 133.22 368.069 134.5 369.5C132.447 369.598 130.78 368.931 129.5 367.5Z" fill="#B4B4B4"/>
<path opacity="0.263" fill-rule="evenodd" clip-rule="evenodd" d="M137.5 370.5C140.727 370.676 143.727 371.343 146.5 372.5C143.171 372.785 140.171 372.118 137.5 370.5Z" fill="#ABADAC"/>
<path opacity="0.463" fill-rule="evenodd" clip-rule="evenodd" d="M55.5 369.5C57.0739 371.102 57.7406 373.102 57.5 375.5C56.2616 373.786 55.595 371.786 55.5 369.5Z" fill="#A2A2A2"/>
<path opacity="0.143" fill-rule="evenodd" clip-rule="evenodd" d="M146.5 372.5C191.501 372.333 236.501 372.5 281.5 373C284.365 373.183 287.031 373.683 289.5 374.5C241.675 373.883 194.008 373.217 146.5 372.5Z" fill="#CBCDCC"/>
<path opacity="0.133" fill-rule="evenodd" clip-rule="evenodd" d="M294.5 375.5C297.495 375.294 300.162 375.96 302.5 377.5C299.572 377.435 296.905 376.768 294.5 375.5Z" fill="#A7A7A7"/>
<path opacity="0.208" fill-rule="evenodd" clip-rule="evenodd" d="M316.5 382.5C319.089 382.461 321.089 383.461 322.5 385.5C320.181 385.008 318.181 384.008 316.5 382.5Z" fill="#AAABAB"/>
<path opacity="0.024" fill-rule="evenodd" clip-rule="evenodd" d="M63.5001 390.5C64.3383 390.842 64.6717 391.508 64.5001 392.5C62.3024 392.591 61.969 391.925 63.5001 390.5Z" fill="#D7D9D8"/>
<path opacity="0.012" fill-rule="evenodd" clip-rule="evenodd" d="M333.5 392.5C335.027 392.427 336.027 393.094 336.5 394.5C334.973 394.573 333.973 393.906 333.5 392.5Z" fill="#C7C8C8"/>
<path opacity="0.949" fill-rule="evenodd" clip-rule="evenodd" d="M67.5 397.5C69.4456 398.035 70.4456 399.368 70.5 401.5C69.0256 400.564 68.0256 399.23 67.5 397.5Z" fill="#6C6C6C"/>
<path opacity="0.808" fill-rule="evenodd" clip-rule="evenodd" d="M344.5 402.5C346.587 403.585 347.92 405.251 348.5 407.5C346.413 406.415 345.08 404.749 344.5 402.5Z" fill="#848685"/>
<path opacity="0.01" fill-rule="evenodd" clip-rule="evenodd" d="M73.5 405.5C75.5869 406.585 76.9202 408.251 77.5 410.5C75.4131 409.415 74.0798 407.749 73.5 405.5Z" fill="#C3C3C3"/>
<path opacity="0.776" fill-rule="evenodd" clip-rule="evenodd" d="M348.5 407.5C350.262 408.262 351.262 409.596 351.5 411.5C349.738 410.738 348.738 409.404 348.5 407.5Z" fill="#838483"/>
<path opacity="0.039" fill-rule="evenodd" clip-rule="evenodd" d="M77.5 410.5C78.5 410.833 79.1667 411.5 79.5 412.5C78.1667 412.5 77.5 411.833 77.5 410.5Z" fill="#EFEFEF"/>
<path opacity="0.565" fill-rule="evenodd" clip-rule="evenodd" d="M79.5 412.5C81.4044 412.738 82.7377 413.738 83.5 415.5C81.5956 415.262 80.2623 414.262 79.5 412.5Z" fill="#A8A8A8"/>
<path opacity="0.369" fill-rule="evenodd" clip-rule="evenodd" d="M351.5 411.5C352.906 411.973 353.573 412.973 353.5 414.5C352.094 414.027 351.427 413.027 351.5 411.5Z" fill="#A0A1A1"/>
<path opacity="0.18" fill-rule="evenodd" clip-rule="evenodd" d="M353.5 414.5C354.906 414.973 355.573 415.973 355.5 417.5C354.094 417.027 353.427 416.027 353.5 414.5Z" fill="#BFC1C0"/>
<path opacity="0.639" fill-rule="evenodd" clip-rule="evenodd" d="M85.5 417.5C87.0269 417.427 88.0269 418.094 88.5 419.5C86.9731 419.573 85.9731 418.906 85.5 417.5Z" fill="#959595"/>
<path opacity="0.584" fill-rule="evenodd" clip-rule="evenodd" d="M88.5 419.5C90.4044 419.738 91.7377 420.738 92.5 422.5C90.5956 422.262 89.2623 421.262 88.5 419.5Z" fill="#8C8E8D"/>
<path opacity="0.369" fill-rule="evenodd" clip-rule="evenodd" d="M94.5 423.5C96.0269 423.427 97.0269 424.094 97.5 425.5C95.9731 425.573 94.9731 424.906 94.5 423.5Z" fill="#9A9C9B"/>
<path opacity="0.82" fill-rule="evenodd" clip-rule="evenodd" d="M358.5 423.5C359.537 424.93 360.204 426.597 360.5 428.5C358.787 427.365 358.12 425.698 358.5 423.5Z" fill="#7F7F7F"/>
<path opacity="0.855" fill-rule="evenodd" clip-rule="evenodd" d="M110.5 431.5C112.698 431.12 114.365 431.787 115.5 433.5C113.597 433.204 111.93 432.537 110.5 431.5Z" fill="#737574"/>
<path opacity="0.667" fill-rule="evenodd" clip-rule="evenodd" d="M361.5 431.5C362.738 433.214 363.405 435.214 363.5 437.5C361.926 435.898 361.259 433.898 361.5 431.5Z" fill="#9D9D9D"/>
<path opacity="0.51" fill-rule="evenodd" clip-rule="evenodd" d="M120.5 434.5C123.152 434.41 125.485 435.076 127.5 436.5C124.848 436.59 122.515 435.924 120.5 434.5Z" fill="#8C8C8C"/>
<path opacity="0.741" fill-rule="evenodd" clip-rule="evenodd" d="M276.5 439.5C282.51 438.741 287.843 440.075 292.5 443.5C287.132 441.825 281.798 440.491 276.5 439.5Z" fill="#8D8E8D"/>
<path opacity="0.4" fill-rule="evenodd" clip-rule="evenodd" d="M363.5 439.5C365.04 441.838 365.706 444.505 365.5 447.5C364.232 445.095 363.565 442.428 363.5 439.5Z" fill="#A5A7A6"/>
<path opacity="0.471" fill-rule="evenodd" clip-rule="evenodd" d="M302.5 453.5C303.117 453.611 303.617 453.944 304 454.5C306.137 460.703 305.971 466.703 303.5 472.5C305.069 466.056 304.735 459.722 302.5 453.5Z" fill="#838584"/>
<path opacity="0.408" fill-rule="evenodd" clip-rule="evenodd" d="M365.5 450.5C366.657 458.656 366.823 466.99 366 475.5C365.689 479.09 364.856 482.423 363.5 485.5C365.192 473.907 365.858 462.24 365.5 450.5Z" fill="#929493"/>
<path opacity="0.424" fill-rule="evenodd" clip-rule="evenodd" d="M301.5 477.5C301.573 479.027 300.906 480.027 299.5 480.5C299.427 478.973 300.094 477.973 301.5 477.5Z" fill="#999999"/>
<path opacity="0.667" fill-rule="evenodd" clip-rule="evenodd" d="M299.5 480.5C298.404 483.386 296.404 485.386 293.5 486.5C295.027 484.061 297.027 482.061 299.5 480.5Z" fill="#858585"/>
<path opacity="0.022" fill-rule="evenodd" clip-rule="evenodd" d="M293.5 486.5C293.158 487.338 292.492 487.672 291.5 487.5C291.409 485.302 292.075 484.969 293.5 486.5Z" fill="#D0D1D0"/>
<path opacity="0.706" fill-rule="evenodd" clip-rule="evenodd" d="M289.5 488.5C287.081 490.862 284.081 491.862 280.5 491.5C283.341 490.331 286.341 489.331 289.5 488.5Z" fill="#878787"/>
<path opacity="0.016" fill-rule="evenodd" clip-rule="evenodd" d="M345.5 520.5C345.573 522.027 344.906 523.027 343.5 523.5C343.427 521.973 344.094 520.973 345.5 520.5Z" fill="#CBCCCB"/>
<path opacity="0.01" fill-rule="evenodd" clip-rule="evenodd" d="M341.5 525.5C341.5 526.833 340.833 527.5 339.5 527.5C339.833 526.5 340.5 525.833 341.5 525.5Z" fill="#F2F3F3"/>
<path opacity="0.012" fill-rule="evenodd" clip-rule="evenodd" d="M339.5 527.5C338.965 529.446 337.632 530.446 335.5 530.5C336.436 529.026 337.77 528.026 339.5 527.5Z" fill="#DDDDDD"/>
<path opacity="0.01" fill-rule="evenodd" clip-rule="evenodd" d="M326.5 537.5C326.027 538.906 325.027 539.573 323.5 539.5C323.973 538.094 324.973 537.427 326.5 537.5Z" fill="#D8D8D8"/>
<path opacity="0.039" fill-rule="evenodd" clip-rule="evenodd" d="M321.5 540.5C321.842 539.662 322.508 539.328 323.5 539.5C323.591 541.698 322.925 542.031 321.5 540.5Z" fill="#DDDDDD"/>
<path opacity="0.173" fill-rule="evenodd" clip-rule="evenodd" d="M317.5 542.5C316.713 544.104 315.38 544.771 313.5 544.5C314.514 543.326 315.847 542.66 317.5 542.5Z" fill="#B3B3B3"/>
<path opacity="0.595" fill-rule="evenodd" clip-rule="evenodd" d="M271.5 492.5C271.333 512.503 271.5 532.503 272 552.5C277.765 553.414 283.599 553.414 289.5 552.5C283.499 554.512 277.332 554.845 271 553.5C270.171 532.996 270.337 512.663 271.5 492.5Z" fill="#7D7E7E"/>
<path opacity="0.133" fill-rule="evenodd" clip-rule="evenodd" d="M306.5 547.5C306.5 547.833 306.5 548.167 306.5 548.5C304.883 549.038 303.216 549.371 301.5 549.5C302.78 548.069 304.447 547.402 306.5 547.5Z" fill="#B9BAB9"/>
<path opacity="0.01" fill-rule="evenodd" clip-rule="evenodd" d="M306.5 548.5C307.833 549.167 307.833 549.167 306.5 548.5Z" fill="#E7EAE8"/>
<path opacity="0.01" fill-rule="evenodd" clip-rule="evenodd" d="M268.5 549.5C269.833 550.167 269.833 550.167 268.5 549.5Z" fill="#EFF2F0"/>
<path opacity="0.051" fill-rule="evenodd" clip-rule="evenodd" d="M297.5 550.5C295.162 552.04 292.495 552.706 289.5 552.5C291.905 551.232 294.572 550.565 297.5 550.5Z" fill="#C3C3C3"/>
</svg>
