<svg width="64" height="64" viewBox="0 0 64 64" fill="none" xmlns="http://www.w3.org/2000/svg">
<rect width="64" height="64" rx="12" fill="white"/>
<path d="M28.0168 14.479C21.7731 15.0852 16.8908 17.9244 15.2269 21.916C14.0841 24.6591 14.4538 27.6903 16.2605 30.2233C16.5714 30.6615 16.8067 31.0576 16.7731 31.0936C16.7395 31.1297 16.5546 31.2617 16.353 31.3878C15.8488 31.7119 14.9664 32.5162 14.5126 33.0564C13.563 34.2209 13.2017 35.4094 13.3782 36.8019C13.8656 40.6495 17.0252 43.1885 22.2437 43.9448C23.874 44.1789 25.1681 44.2149 32.8824 44.2149C40.6051 44.2149 40.7563 44.2209 41.6555 44.509C42.1849 44.6771 42.7479 45.0672 42.9748 45.4334C43.2437 45.8655 43.2437 46.6699 42.9748 47.1681C42.7563 47.5702 42.1093 48.1104 41.5883 48.3265C41.1597 48.5006 40.4454 48.6507 39.9412 48.6627C39.7311 48.6687 39.479 48.6987 39.3782 48.7227L39.1849 48.7767V51.2917C39.1849 53.6327 39.1933 53.8187 39.3362 53.8727C39.5042 53.9388 40.6219 53.8667 41.5378 53.7287C45.1009 53.2005 48.1849 51.4958 49.5294 49.3169C50.7983 47.2701 50.7059 44.6351 49.3109 42.6543C48.0336 40.8535 45.7899 39.563 42.9412 38.9988C41.2941 38.6687 41.5294 38.6747 32.5883 38.6387C24.3782 38.5966 24.2605 38.5966 23.6135 38.4646C22.1765 38.1765 21.0925 37.6242 20.6135 36.922C20.4286 36.6579 20.4034 36.5438 20.4034 35.9316C20.4034 35.4034 20.437 35.1753 20.5546 34.9712C20.7479 34.6351 21.0925 34.2689 21.2605 34.2269C21.3362 34.2029 21.7395 34.3229 22.2017 34.509C24.7983 35.5414 27.4202 36.0036 30.6555 36.0096C32.3782 36.0096 33.6135 35.9016 35.1681 35.6254C40.5967 34.6471 44.6639 31.8379 46 28.1345C46.4034 27.024 46.5126 26.3577 46.521 25.0972C46.521 23.4766 46.2689 22.4022 45.6135 21.2437C45.4538 20.9556 45.3193 20.6855 45.3193 20.6435C45.3193 20.5834 45.8992 20.5654 48.2857 20.5654C50.479 20.5654 51.2773 20.5474 51.353 20.4934C51.4958 20.3914 51.4958 15.8175 51.353 15.7155C51.2773 15.6615 49.7227 15.6435 44.8908 15.6435H38.5294L37.9496 15.4574C36.5126 14.9952 34.9328 14.6771 33.2605 14.497C31.9328 14.3589 29.353 14.3529 28.0168 14.479ZM32.8404 19.7251C35.6723 20.2773 37.7899 21.7719 38.5294 23.7467C38.7983 24.467 38.7983 25.7575 38.5294 26.5318C37.7731 28.6807 35.3193 30.3313 32.2521 30.7395C31.2185 30.8775 29.4202 30.8355 28.4706 30.6495C25.9664 30.1633 23.8992 28.9028 22.958 27.2941C22.2689 26.1176 22.1933 24.563 22.7563 23.3565C23.3698 22.042 24.8488 20.8415 26.6051 20.2173C27.4286 19.9292 27.8992 19.8091 28.8488 19.6591C29.8572 19.503 31.874 19.533 32.8404 19.7251Z" fill="black"/>
</svg>
